<svg id="layer" xmlns="http://www.w3.org/2000/svg" viewBox="0 0 266.48 392.12"><defs><style>.cls-1{fill:#919191;}.cls-2{fill:#ddd;}.cls-3{fill:#fcfcfc;}.cls-4{fill:#b2b2b2;}.cls-5{fill:#ededed;}.cls-6{fill:#c1c1c1;}.cls-7{fill:#848484;}.cls-8{fill:#6b6b6b;}.cls-9{fill:#d1d1d1;}.cls-10{fill:#999;}.cls-11{fill:#777;}.cls-12{fill:#5d5d5d;}.cls-13{fill:#606060;}</style></defs><title>logo-light</title><polygon class="cls-1" points="233.41 276.17 266.48 247.46 250.34 184.63 262.79 172.18 237.85 121.16 242.48 101.17 237.66 50.93 236.36 49.19 228.03 16.17 215.29 0 163.38 61.93 133.24 56.73 103.1 61.93 51.19 0 38.45 16.17 30.12 49.19 28.82 50.93 24 101.17 28.63 121.16 3.69 172.18 16.14 184.63 0 247.46 33.07 276.17 28.83 291.68 54.95 329.39 84.05 369.83 133.05 391.95 133.05 392.12 133.24 392.04 133.43 392.12 133.43 391.95 182.44 369.83 211.53 329.39 237.65 291.68 233.41 276.17"/><polygon class="cls-2" points="133.24 56.73 103.1 61.93 133.43 120.93 133.24 56.73"/><polygon class="cls-2" points="103.17 131.02 28.63 121.16 103.1 61.93 133.43 120.93 103.17 131.02"/><polygon class="cls-2" points="103.17 131.02 110.5 165.87 133.43 161.28 133.43 120.93 103.17 131.02"/><polygon class="cls-3" points="103.17 131.02 106.71 147.84 28.63 121.16 103.17 131.02"/><polygon class="cls-4" points="110.5 165.87 106.71 147.84 76.05 136.58 88.43 163.18 110.5 165.87"/><polygon class="cls-2" points="68.12 206.88 28.63 121.16 76.05 136.58 88.43 163.18 68.12 206.88"/><polygon class="cls-3" points="110.5 165.87 78.96 183.57 88.43 163.18 110.5 165.87"/><polygon class="cls-2" points="116.5 186.2 110.5 165.87 133.43 161.28 133.43 182.94 116.5 186.2"/><polygon class="cls-5" points="116.5 186.2 112.26 234.48 133.43 226.1 133.43 182.94 116.5 186.2"/><polygon class="cls-6" points="116.5 186.2 110.5 165.87 78.96 183.57 68.12 206.88 116.5 186.2"/><polygon class="cls-2" points="116.5 186.2 112.26 234.48 103.21 268.93 68.12 206.88 116.5 186.2"/><polygon class="cls-7" points="107.77 251.57 112.26 234.48 133.43 226.1 133.43 266.13 107.77 251.57"/><polygon class="cls-6" points="107.77 251.57 103.21 268.93 133.43 272.34 133.43 266.13 107.77 251.57"/><polygon class="cls-8" points="103.21 268.93 133.43 272.34 133.43 279.32 103.21 268.93"/><polygon class="cls-9" points="68.12 206.88 28.63 121.16 3.69 172.18 25.4 193.89 68.12 206.88"/><polygon class="cls-8" points="82.22 243.65 103.21 268.93 81.91 231.27 82.22 243.65"/><polygon class="cls-9" points="68.12 206.88 81.91 231.27 82.22 243.65 25.4 193.89 68.12 206.88"/><polygon class="cls-10" points="103.21 268.93 112.45 280.13 133.43 285.67 133.43 279.32 103.21 268.93"/><polygon class="cls-2" points="38.45 16.17 103.1 61.93 51.19 0 38.45 16.17"/><polygon class="cls-2" points="38.45 16.17 49.13 23.73 29.51 51.62 38.45 16.17"/><polygon class="cls-10" points="49.13 23.73 103.1 61.93 63.84 93.16 49.13 23.73"/><polygon class="cls-7" points="49.13 23.73 28.82 50.93 63.84 93.16 49.13 23.73"/><polygon class="cls-9" points="24 101.17 28.82 50.93 63.84 93.16 24 101.17"/><polygon class="cls-9" points="24 101.17 28.63 121.16 63.84 93.16 24 101.17"/><polygon class="cls-2" points="0 247.46 82.22 243.65 16.14 184.63 0 247.46"/><polygon class="cls-5" points="83.24 299.93 41.56 245.15 82.22 243.65 103.21 268.93 83.24 299.93"/><polygon class="cls-9" points="83.24 299.93 41.56 245.15 28.83 291.68 54.95 329.39 83.24 299.93"/><polygon class="cls-9" points="83.24 299.93 133.43 392.12 112.45 280.13 103.21 268.93 83.24 299.93"/><polygon class="cls-6" points="83.24 299.93 133.43 392.12 84.05 369.83 54.95 329.39 83.24 299.93"/><polygon class="cls-6" points="0 247.46 41.56 245.15 33.07 276.17 0 247.46"/><polygon class="cls-5" points="133.43 285.67 133.43 392.12 112.45 280.13 133.43 285.67"/><polygon class="cls-10" points="133.24 56.73 163.38 61.93 133.05 120.93 133.24 56.73"/><polygon class="cls-10" points="163.31 131.02 237.85 121.16 163.38 61.93 133.05 120.93 163.31 131.02"/><polygon class="cls-10" points="163.31 131.02 155.98 165.87 133.05 161.28 133.05 120.93 163.31 131.02"/><polygon class="cls-5" points="163.31 131.02 159.77 147.84 237.85 121.16 163.31 131.02"/><polygon class="cls-8" points="155.98 165.87 159.77 147.84 190.43 136.58 178.05 163.18 155.98 165.87"/><polygon class="cls-7" points="198.36 206.88 237.85 121.16 190.43 136.58 178.05 163.18 198.36 206.88"/><polygon class="cls-9" points="155.98 165.87 187.52 183.57 178.05 163.18 155.98 165.87"/><polygon class="cls-10" points="149.98 186.2 155.98 165.87 133.05 161.28 133.05 182.94 149.98 186.2"/><polygon class="cls-1" points="149.98 186.2 154.22 234.48 133.05 226.1 133.05 182.94 149.98 186.2"/><polygon class="cls-11" points="149.98 186.2 155.98 165.87 187.52 183.57 198.36 206.88 149.98 186.2"/><polygon class="cls-7" points="149.98 186.2 154.22 234.48 163.27 268.93 198.36 206.88 149.98 186.2"/><polygon class="cls-8" points="158.71 251.57 154.22 234.48 133.05 226.1 133.05 266.13 158.71 251.57"/><polygon class="cls-11" points="158.71 251.57 163.27 268.93 133.05 272.34 133.05 266.13 158.71 251.57"/><polygon class="cls-12" points="163.27 268.93 133.05 272.34 133.05 279.32 163.27 268.93"/><polygon class="cls-4" points="198.36 206.88 237.85 121.16 262.79 172.18 241.08 193.89 198.36 206.88"/><polygon class="cls-12" points="184.26 243.65 163.27 268.93 184.57 231.27 184.26 243.65"/><polygon class="cls-4" points="198.36 206.88 184.57 231.27 184.26 243.65 241.08 193.89 198.36 206.88"/><polygon class="cls-8" points="163.27 268.93 154.03 280.13 133.05 285.67 133.05 279.32 163.27 268.93"/><polygon class="cls-4" points="228.03 16.17 163.38 61.93 215.29 0 228.03 16.17"/><polygon class="cls-4" points="228.03 16.17 217.35 23.73 236.97 51.62 228.03 16.17"/><polygon class="cls-7" points="217.35 23.73 163.38 61.93 202.65 93.16 217.35 23.73"/><polygon class="cls-13" points="217.35 23.73 237.66 50.93 202.65 93.16 217.35 23.73"/><polygon class="cls-4" points="242.48 101.17 237.66 50.93 202.65 93.16 242.48 101.17"/><polygon class="cls-4" points="242.48 101.17 237.85 121.16 202.65 93.16 242.48 101.17"/><polygon class="cls-7" points="266.48 247.46 184.26 243.65 250.34 184.63 266.48 247.46"/><polygon class="cls-4" points="183.24 299.93 224.92 245.15 184.26 243.65 163.27 268.93 183.24 299.93"/><polygon class="cls-11" points="183.24 299.93 224.92 245.15 237.65 291.68 211.53 329.39 183.24 299.93"/><polygon class="cls-6" points="183.24 299.93 133.05 392.12 154.03 280.13 163.27 268.93 183.24 299.93"/><polygon class="cls-7" points="183.24 299.93 133.05 392.12 182.44 369.83 211.53 329.39 183.24 299.93"/><polygon class="cls-8" points="266.48 247.46 224.92 245.15 233.41 276.17 266.48 247.46"/><polygon class="cls-1" points="133.05 285.67 133.05 392.12 154.03 280.13 133.05 285.67"/></svg>