<svg id="Layer_1" data-name="Layer 1" xmlns="http://www.w3.org/2000/svg" viewBox="0 0 500 422.29"><defs><style>.cls-1{fill:#010101;}</style></defs><title>logo-dark</title><path class="cls-1" d="M0.56,307.05a286.51,286.51,0,0,1,19.71-34.89c19.08-28.91,42.54-53.81,69.35-75.64a415.66,415.66,0,0,1,65.27-43.42,374.78,374.78,0,0,1,52.55-23.75,2.58,2.58,0,0,0,1.25-1.36,98.27,98.27,0,0,1,11.36-19.77c9.92-13.43,22.28-24.28,36-33.69,19.77-13.6,41.24-23.81,63.79-31.85,3.76-1.34,7.57-2.54,11.47-3.84,0.26,0.72.48,1.24,0.65,1.78a113.89,113.89,0,0,1,4.33,22.79,181.27,181.27,0,0,1,.26,29.79c-0.14,1.91-.23,3.83-0.35,5.95C352,89.4,369,83.41,386.76,78.47c0,0.72,0,1.19,0,1.66a123.71,123.71,0,0,1-3.33,22.43c-4,17.27-10.17,33.83-17.17,50.1-1.57,3.63-3.21,7.23-4.83,10.88,24,20.32,45.61,43,66.18,66.53-2.62,1.27-5.15,2.27-7.46,3.65a11.94,11.94,0,0,0-6.2,9.88,3.36,3.36,0,0,0,1.67,3.43q41.65,27.47,83.25,55c1.13,0.74,1.39,1.31.9,2.63-5.12,13.83-13.64,25.28-24.57,35-14.8,13.16-31.94,22.28-50.45,29a18.72,18.72,0,0,1-11.12.82c-14.79-3.4-29.66-6.45-44.5-9.67a64.68,64.68,0,0,0-30.19.13c-13.91,3.56-25.24,11.35-35.1,21.5a1.93,1.93,0,0,0-.45,1.28,55.86,55.86,0,0,1-1.82,16.55c-2.88,11.12-8.33,21-15,30.26-8.2,11.5-18.09,21.47-28.28,31.16a3.8,3.8,0,0,1-.72.41c-1.1-34.51-14.46-63.07-40.58-85.55,5.09,12.28,8.14,24.89,6.7,38.6-0.41-.44-0.64-0.64-0.81-0.87a235.39,235.39,0,0,0-28.18-31.8,270.75,270.75,0,0,0-77.08-52.07,246,246,0,0,0-55.61-17.27,202.09,202.09,0,0,0-29.83-3.55c-8.69-.3-17.38-0.23-26.07-0.31-2,0-4,0-6.15,0C0.21,307.85.38,307.44,0.56,307.05Zm303.76,40.82c2.63-.26,5.26-0.65,7.89-0.77,6.9-.3,13.81-0.69,20.71-0.66a257,257,0,0,1,83.14,14.8,6,6,0,0,0,4.27,0c16.29-5.79,31.48-13.59,45-24.42,2.26-1.81,4.38-3.8,6.55-5.71a2.83,2.83,0,0,0,.35-0.47,38.65,38.65,0,0,1-7.06-12.5,54.64,54.64,0,0,1-2-22.47,45.18,45.18,0,0,1,.74-5.16,1.41,1.41,0,0,0-.81-1.79q-11.81-7.08-23.59-14.22-19.86-12-39.7-24a4.36,4.36,0,0,1-1.42-1.5c-7.14-12.24-16-22.94-27.66-31.17a80.94,80.94,0,0,0-38.61-14.5,86.55,86.55,0,0,0-26.62,1.11c-0.48.1-1,.22-1.43,0.33a2,2,0,0,0-.41.31l17.67,5.22,0,0.19c-2.62.12-5.25,0.19-7.86,0.37-14.46,1-28.55,3.56-41.79,9.74A51.09,51.09,0,0,0,253,234.81c-6.11,7.61-9,16.39-9.41,26.06-0.48,10.81,1.82,21.16,5.31,31.28,1.14,3.3,2.45,6.55,3.78,9.78,0.62-7.11,2.22-13.19,4.17-15.32,0.79,1.58,1.55,3.12,2.33,4.65,4.63,9.09,10.52,17.37,16.37,25.68,8.93,12.68,16.83,26,22.17,40.59,1.48,4,2.52,8.25,3.76,12.39,0.12,0.41.24,0.83,0.41,1.42a85.08,85.08,0,0,1,27-17.12C320.7,350.92,312.47,349.68,304.32,347.87ZM182,162.44a280.66,280.66,0,0,0-50.73,28.49A362,362,0,0,0,86.52,227.8a411.38,411.38,0,0,0-51.87,61.08c-0.18.25-.33,0.52-0.65,1,1.26-.14,2.32-0.28,3.39-0.38,21.08-1.94,41.47,1.49,61.47,7.87a212.46,212.46,0,0,1,49,23.26l1,0.62a0.67,0.67,0,0,0,.24,0c-1.45-1.73-2.92-3.37-4.27-5.1A68.36,68.36,0,0,1,130.54,283c-1.81-12.92.41-25.3,5.43-37.23,1.14-2.71,2.51-5.31,3.78-8,0.16-.35.31-0.7,0.58-1.29a68.12,68.12,0,0,0-30,21.09l-0.35-.14c0.09-1.57.09-3.16,0.28-4.72,1.33-11.27,5.55-21.5,11.27-31.18,8.58-14.53,20-26.64,32.79-37.48A250,250,0,0,1,187.08,161c0.37-.22.72-0.47,1.08-0.7L188,160C186,160.83,184,161.6,182,162.44Zm88.63-9.22c1-8.46,6.33-14.1,12.35-19.36A25,25,0,0,0,281.76,144c0.44,3.43,1.11,6.83,1.71,10.49,3.13-.57,5.89-1,8.61-1.6,3.47-.81,6.88-1.85,10.34-2.71a3.25,3.25,0,0,0,2.17-1.77A114.81,114.81,0,0,0,315,123a166.52,166.52,0,0,0,6.48-43.11c0.13-6.85-.23-13.71-0.38-20.56a6.6,6.6,0,0,0-.13-0.73c-2.4,1.08-4.71,2.08-7,3.16-14.63,7-28.35,15.41-40.5,26.23-8.9,7.92-16.56,16.84-21.64,27.76a53.36,53.36,0,0,0-5,28.21,56.77,56.77,0,0,0,.95,5.74c5.32-20.35,17.77-35.73,33.54-48.83C271.33,117,267.6,134.41,270.65,153.21Z" transform="translate(0 -38.86)"/><path class="cls-1" d="M355,252.25a43.77,43.77,0,0,0-14.62-7.58c-12.9-4.21-26.25-5.6-39.72-6.16l-6.3-.24-0.11-.41c2.23-1.46,4.38-3,6.68-4.35,15.63-8.91,32.71-12.31,50.47-13a2.84,2.84,0,0,1,1.66.62q16.75,12.87,33.46,25.8c0.64,0.49,1.25,1,1.88,1.5l-0.14.24-28.39-10.17c0.3,5.35-.77,10.08-4.28,14.08A4.41,4.41,0,0,1,355,252.25Zm-14.71-23c-0.6-.9-1.38-0.7-2.13-0.54-5.43,1.18-10.85,2.37-16.26,3.62a46.72,46.72,0,0,0-5.35,1.69,63.06,63.06,0,0,1,26.19,4.23A16.78,16.78,0,0,0,340.33,229.22Zm8.89,12.28c2-2.71,2.38-7.85.76-10.51a34.22,34.22,0,0,1-1.48,4.55,35,35,0,0,1-2.63,4Z" transform="translate(0 -38.86)"/></svg>