<?xml version="1.0" encoding="utf-8"?>
<!-- Generator: Adobe Illustrator 19.2.0, SVG Export Plug-In . SVG Version: 6.00 Build 0)  -->
<svg version="1.1" id="Layer_1" xmlns="http://www.w3.org/2000/svg" xmlns:xlink="http://www.w3.org/1999/xlink" x="0px" y="0px"
	 viewBox="0 0 500 500" style="enable-background:new 0 0 500 500;" xml:space="preserve">
<style type="text/css">
	.st0{fill-rule:evenodd;clip-rule:evenodd;fill:#80CBC4;}
	.st1{fill-rule:evenodd;clip-rule:evenodd;fill:#231F20;}
</style>
<g>
	<g>
		<path class="st0" d="M54.4,339.1C28.3,352.4,17.1,364,0.8,376.9c-1.8-20.7-0.3-41.8,4.1-62.5c7.4-34.4,22.9-67.4,44.9-94
			c-13.3-1.6-29-1.2-38.9-0.7c9.7-13.9,21.3-28.5,34.1-41c35.8-34.8,86.9-60.5,134.2-69.9c11.1-25.3,30-53.6,47.9-72.9l21.5-23.2
			l2.1,31.6c0.4,5.3,0.7,10.7,1.1,16c21.1-21.1,46-34.2,72.1-47.5c1,33.1,1.5,66.1-3.3,99.2c17.2,6.5,31,13.4,46.5,26.1
			c3.2,2.6,6,5.6,8.6,8.9c6.2,7.8,16.9,23.7,24.9,28.1c11.8,6.5,23.5,13,35.1,19.7c18.5,10.7,41,23.4,57.4,36.9
			c21.9,18.1-15.2,54.6-28,67.9c-9.6,10-32.5,32.3-45.9,35.9c-12.9,3.5-32.6-7.2-44.9-11.8c-11.1-4.2-24-8.4-36.6-9.2
			c9.7,21.4,0.9,37.8-1.4,53.2C331,404,369,405,394.1,396c-46.9,118.1-195.4,114.5-270.5,30c-25.2,13.7-43.6,34.4-63.9,54
			C41.9,435.1,37.7,385.1,54.4,339.1z"/>
		<path class="st1" d="M290.3,72.8c-9.9,7.4-17.7,16.1-20.4,21c2.7,3.3,5.5,6.7,8.2,10c-7.8,3.7-15.6,7.4-23.5,11.1
			c16.2,0.2,25,1.4,33.4,2.4C290.7,102.5,291.5,87.6,290.3,72.8L290.3,72.8z M306.3,179.3c4.8,21.4,23,21.5,43,26.5
			c-14.6-43.8-99.5-60.5-156.9-33l21,6.7c-18.2,15.5-31.9,39.6-34,72.6c15.1-16.4,35.7-33.2,57.4-41.9l-17.2-8.4
			C243.3,176.5,281.3,172.9,306.3,179.3L306.3,179.3z M308.3,305.6c5.5-1.9,10.8-4.6,17.7-9.8c0.9,11.9-1,20.1-15,26.1
			C311.6,317.4,310.6,309.4,308.3,305.6L308.3,305.6z M277,328.3c-29.6-0.3-57.3-20.1-57.2-51.9c9.9,22,31.9,32.6,55.4,33.7
			c5.1-11.4,21.8-11.9,27.7-1.5c3.6,6.4,2.3,13.4-1,18.1C296.3,334.6,283.3,336.5,277,328.3L277,328.3z M439.6,239.3
			c-21.4-14.5-43.8-27.4-65.5-41.6c-10-6.6-16.9-18.1-25.9-26.1c-21.6-19.1-54.7-27.3-86.2-28.6c-51.7-2.1-98.3,13.7-140,44.6
			c14.2,2.2,27.2,6.2,38.7,11.9c-22.1,14.7-55.6,42.2-77.5,84.9c1-2.1,39.6-13.9,71.5-14.6c-16.8,19.6-49.1,51.3-55.7,115.4
			c29.6-23.3,46.1-32,64.3-37.9c41.6,70.3,133.9,101.6,207.2,67.6c-15.6,29.1-44.3,46.4-75.7,53.4c-60,13.3-129-12.8-168.3-59.1
			c-18.6,9.2-41.6,27.7-60.9,46.1C50.2,405.2,57,354,80.9,315.6c-19.1,3.5-42.7,14.2-66.8,33.4c3.2-57,30.1-107.4,62.3-136.8
			c-7-3.3-31.7-6.9-37.9-6c20.3-25.6,74.6-72.8,150.6-85.3c11.3-29.2,34.1-60.6,48.2-75.7c1.1,16.7,2.2,33.4,3.3,50.1
			c17.3-25.3,40.4-45.3,69.2-59.9c0.9,27.2-0.2,70.3-2.9,86.1c25.5,8.9,50.2,19.9,64.7,43.5c5.3,8.7,13.6,17.1,22.6,22.1
			c30.3,16.7,73.1,40.9,90.5,55.2c15,12.4-53.9,76.1-68.8,80.1c-6.9,1.9-20.1-5.3-36.5-11.4c-18.2-6.9-34.6-14.2-50.2-16.6
			c15-8.2,37.3-5.2,53.5-1c14.5,3.8,26.9,7.2,32.3,5.8c1.9-0.5,22.6-18.5,33.7-32C440.3,260.2,439.5,245,439.6,239.3z"/>
	</g>
</g>
</svg>
