<svg id="Layer_1" data-name="Layer 1" xmlns="http://www.w3.org/2000/svg" viewBox="0 0 500 461.67"><defs><style>.cls-1{fill:#fff;fill-rule:evenodd;}</style></defs><title>logo-light</title><path class="cls-1" d="M292.22,39.65c-10.48,7.79-18.69,17-21.55,22.2l8.71,10.56L254.54,84.16a279.52,279.52,0,0,1,35.35,2.52,180.91,180.91,0,0,0,2.32-47h0Zm16.93,112.62c5.06,22.69,24.36,22.74,45.46,28-15.47-46.35-105.24-64-166-34.88l22.23,7.1c-19.29,16.35-33.79,41.92-36,76.86,16-17.35,37.82-35.17,60.77-44.35l-18.24-8.88c25.15-26.73,65.35-30.61,91.72-23.85h0Zm2.18,133.6c5.83-2,11.47-4.91,18.76-10.33,0.9,12.6-1.09,21.23-15.84,27.58,0.58-4.76-.46-13.12-2.92-17.25h0ZM278.15,310c-31.3-.36-60.63-21.22-60.54-54.88,10.47,23.32,33.7,34.47,58.56,35.69,5.34-12.09,23.07-12.58,29.31-1.53a17.8,17.8,0,0,1-1.06,19.12c-5.81,8.18-19.53,10.18-26.27,1.61h0Zm172-94.21c-22.68-15.38-46.39-29-69.26-44-10.62-7-17.84-19.14-27.43-27.63-22.8-20.19-57.84-28.87-91.22-30.25-54.72-2.27-104,14.49-148.11,47.14a140.54,140.54,0,0,1,41,12.59c-23.43,15.52-58.77,44.6-82,89.87,1.11-2.22,41.91-14.71,75.65-15.49-17.75,20.77-52,54.24-58.93,122.11,31.34-24.66,48.72-33.87,68.05-40.11C202,404.36,299.6,437.55,377.14,401.54c-16.47,30.82-46.9,49.11-80.09,56.47-63.44,14.06-136.47-13.54-178-62.51-19.71,9.76-44,29.26-64.42,48.78-16.34-53-9.23-107.11,16.07-147.76-20.26,3.7-45.18,15-70.68,35.32,3.4-60.31,31.81-113.61,65.88-144.76-7.43-3.49-33.5-7.26-40.11-6.31,21.45-27.08,79-77.05,159.3-90.3,12-30.88,36.12-64.12,51-80.09q1.75,26.55,3.49,53Q267,23.23,312.73,0c0.9,28.79-.25,74.33-3.07,91.11,27,9.37,53.07,21,68.49,46.05,5.65,9.18,14.4,18.13,23.89,23.33,32.07,17.62,77.35,43.29,95.71,58.41,15.87,13.07-57,80.51-72.75,84.74-7.32,2-21.31-5.56-38.58-12.07-19.26-7.26-36.59-15-53.15-17.61,15.84-8.69,39.46-5.52,56.63-1,15.29,4,28.46,7.67,34.22,6.1,2-.54,23.9-19.57,35.62-33.9C450.92,237.93,450.14,221.76,450.17,215.78Z"/></svg>